<?xml version="1.0" encoding="utf-8"?>
<!-- Generator: Adobe Illustrator 24.0.2, SVG Export Plug-In . SVG Version: 6.00 Build 0)  -->
<svg version="1.1" id="Layer_1" focusable="false" xmlns="http://www.w3.org/2000/svg" xmlns:xlink="http://www.w3.org/1999/xlink"
	 x="0px" y="0px" viewBox="0 0 512 512" style="enable-background:new 0 0 512 512;" xml:space="preserve">
<style type="text/css">
	.st0{fill:#3195F7;}
</style>
<path class="st0" d="M496,384H160v-16c0-8.8-7.2-16-16-16h-32c-8.8,0-16,7.2-16,16v16H16c-8.8,0-16,7.2-16,16v32c0,8.8,7.2,16,16,16
	h80v16c0,8.8,7.2,16,16,16h32c8.8,0,16-7.2,16-16v-16h336c8.8,0,16-7.2,16-16v-32C512,391.2,504.8,384,496,384z M496,224h-80v-16
	c0-8.8-7.2-16-16-16h-32c-8.8,0-16,7.2-16,16v16H16c-8.8,0-16,7.2-16,16v32c0,8.8,7.2,16,16,16h336v16c0,8.8,7.2,16,16,16h32
	c8.8,0,16-7.2,16-16v-16h80c8.8,0,16-7.2,16-16v-32C512,231.2,504.8,224,496,224z M496,64H288V48c0-8.8-7.2-16-16-16h-32
	c-8.8,0-16,7.2-16,16v16H16C7.2,64,0,71.2,0,80v32c0,8.8,7.2,16,16,16h208v16c0,8.8,7.2,16,16,16h32c8.8,0,16-7.2,16-16v-16h208
	c8.8,0,16-7.2,16-16V80C512,71.2,504.8,64,496,64z"/>
</svg>
