<svg id="Layer_1" data-name="Layer 1" xmlns="http://www.w3.org/2000/svg" viewBox="0 0 697.3 701.88"><defs><style>.cls-1{fill:#57abfe;}</style></defs><title>background</title><path class="cls-1" d="M1262,701.41a277.33,277.33,0,0,1-41.45-.66c-10.88-1-21.73-2.45-32.5-4.15-14-2.23-27.87-5-41.76-7.81-21.82-4.37-43.47-9.6-64.91-15.33-20.82-5.56-41.33-12-62.34-17a709.73,709.73,0,0,0-129.88-18.4c-25.79-1.24-51.9-1.68-77.71-.86a125.16,125.16,0,0,1-41.9-5.77c-27.8-8.74-51.75-22.63-70.11-44.07a122,122,0,0,1-18.89-30c-15.92-35.92-14.21-78.57-5.2-116,10.42-43.29,32.32-81.72,47.31-123.29,6.92-19.19,13.22-38.75,15.59-58.92a133.82,133.82,0,0,0,.79-22.9,121.46,121.46,0,0,0-16.15-53.82,256.28,256.28,0,0,1-23.55-53.32c-.93-3-1.78-6.1-2.57-9.18-9.76-38.06-4.06-74.4,15.44-109C714.29,7.29,717,4,718.5.07q322,0,643.94-.06c2.81,0,3.45.58,3.45,3.17q-.12,337.29-.07,674.58a10.44,10.44,0,0,0-1.38.4c-17.67,8-36.32,13.16-55.45,17A331.45,331.45,0,0,1,1262,701.41Z" transform="translate(-668.59 -0.01)"/></svg>